<mxfile host="app.diagrams.net" agent="Mozilla/5.0 (Macintosh; Intel Mac OS X 10_15_7) AppleWebKit/537.36 (KHTML, like Gecko) Chrome/140.0.0.0 Safari/537.36" version="28.2.5">
  <diagram name="Halaman-1" id="aFCUtsabV_YHRkb6BKOJ">
    <mxGraphModel dx="1714" dy="606" grid="1" gridSize="10" guides="1" tooltips="1" connect="1" arrows="1" fold="1" page="1" pageScale="1" pageWidth="827" pageHeight="1169" math="0" shadow="0">
      <root>
        <mxCell id="0" />
        <mxCell id="1" parent="0" />
        <mxCell id="5n1SpemBF9XzUIWcsNsL-1" value="" style="whiteSpace=wrap;html=1;aspect=fixed;fillColor=#60a917;fontColor=#ffffff;strokeColor=#2D7600;" vertex="1" parent="1">
          <mxGeometry x="100" y="170" width="80" height="80" as="geometry" />
        </mxCell>
        <mxCell id="5n1SpemBF9XzUIWcsNsL-2" value="ESP32 + SENSOR" style="sketch=0;outlineConnect=0;dashed=0;verticalLabelPosition=bottom;verticalAlign=top;align=center;html=1;fontSize=12;fontStyle=0;aspect=fixed;pointerEvents=1;shape=mxgraph.aws4.braket_chip;" vertex="1" parent="1">
          <mxGeometry x="102" y="172" width="78" height="78" as="geometry" />
        </mxCell>
        <mxCell id="5n1SpemBF9XzUIWcsNsL-3" value="Internet" style="image;aspect=fixed;perimeter=ellipsePerimeter;html=1;align=center;shadow=0;dashed=0;spacingTop=3;image=img/lib/active_directory/internet_cloud.svg;" vertex="1" parent="1">
          <mxGeometry x="320" y="166.10000000000002" width="130" height="81.9" as="geometry" />
        </mxCell>
        <mxCell id="5n1SpemBF9XzUIWcsNsL-4" value="Rest API Backend" style="image;html=1;image=img/lib/clip_art/computers/Server_128x128.png" vertex="1" parent="1">
          <mxGeometry x="570" y="260" width="120" height="130" as="geometry" />
        </mxCell>
        <mxCell id="5n1SpemBF9XzUIWcsNsL-5" value="DATABASE" style="shape=cylinder3;whiteSpace=wrap;html=1;boundedLbl=1;backgroundOutline=1;size=15;fillColor=#fa6800;fontColor=#000000;strokeColor=#C73500;" vertex="1" parent="1">
          <mxGeometry x="350" y="450" width="90" height="90" as="geometry" />
        </mxCell>
        <mxCell id="5n1SpemBF9XzUIWcsNsL-6" value="Dashboard Admin" style="shape=mxgraph.networks2.icon;aspect=fixed;fillColor=#EDEDED;strokeColor=#000000;gradientColor=#5B6163;network2IconShadow=1;network2bgFillColor=none;labelPosition=center;verticalLabelPosition=bottom;align=center;verticalAlign=top;network2Icon=mxgraph.networks2.pc;network2IconYOffset=-0.0593;network2IconW=0.9999;network2IconH=0.7096;" vertex="1" parent="1">
          <mxGeometry x="-20" y="463.06" width="90" height="63.87" as="geometry" />
        </mxCell>
        <mxCell id="5n1SpemBF9XzUIWcsNsL-7" value="" style="endArrow=classic;html=1;rounded=0;" edge="1" parent="1" source="5n1SpemBF9XzUIWcsNsL-2">
          <mxGeometry width="50" height="50" relative="1" as="geometry">
            <mxPoint x="230" y="450" as="sourcePoint" />
            <mxPoint x="320" y="210" as="targetPoint" />
          </mxGeometry>
        </mxCell>
        <mxCell id="5n1SpemBF9XzUIWcsNsL-12" value="Data Sensor" style="edgeLabel;html=1;align=center;verticalAlign=middle;resizable=0;points=[];" vertex="1" connectable="0" parent="5n1SpemBF9XzUIWcsNsL-7">
          <mxGeometry x="-0.0984" relative="1" as="geometry">
            <mxPoint x="1" as="offset" />
          </mxGeometry>
        </mxCell>
        <mxCell id="5n1SpemBF9XzUIWcsNsL-8" value="" style="endArrow=classic;html=1;rounded=0;exitX=1;exitY=0.5;exitDx=0;exitDy=0;" edge="1" parent="1" source="5n1SpemBF9XzUIWcsNsL-3" target="5n1SpemBF9XzUIWcsNsL-4">
          <mxGeometry width="50" height="50" relative="1" as="geometry">
            <mxPoint x="480" y="207.04999999999995" as="sourcePoint" />
            <mxPoint x="630" y="260" as="targetPoint" />
            <Array as="points">
              <mxPoint x="630" y="207" />
            </Array>
          </mxGeometry>
        </mxCell>
        <mxCell id="5n1SpemBF9XzUIWcsNsL-13" value="Kirim data Json via HTTP POST" style="edgeLabel;html=1;align=center;verticalAlign=middle;resizable=0;points=[];" vertex="1" connectable="0" parent="5n1SpemBF9XzUIWcsNsL-8">
          <mxGeometry x="0.0872" y="-2" relative="1" as="geometry">
            <mxPoint x="50" y="-2" as="offset" />
          </mxGeometry>
        </mxCell>
        <mxCell id="5n1SpemBF9XzUIWcsNsL-9" value="" style="endArrow=classic;html=1;rounded=0;exitX=0.5;exitY=1;exitDx=0;exitDy=0;entryX=1;entryY=0.5;entryDx=0;entryDy=0;entryPerimeter=0;" edge="1" parent="1" source="5n1SpemBF9XzUIWcsNsL-4" target="5n1SpemBF9XzUIWcsNsL-5">
          <mxGeometry width="50" height="50" relative="1" as="geometry">
            <mxPoint x="230" y="450" as="sourcePoint" />
            <mxPoint x="280" y="400" as="targetPoint" />
            <Array as="points">
              <mxPoint x="630" y="495" />
            </Array>
          </mxGeometry>
        </mxCell>
        <mxCell id="5n1SpemBF9XzUIWcsNsL-14" value="Insert /Update data stok" style="edgeLabel;html=1;align=center;verticalAlign=middle;resizable=0;points=[];" vertex="1" connectable="0" parent="5n1SpemBF9XzUIWcsNsL-9">
          <mxGeometry x="-0.0772" y="3" relative="1" as="geometry">
            <mxPoint as="offset" />
          </mxGeometry>
        </mxCell>
        <mxCell id="5n1SpemBF9XzUIWcsNsL-10" value="" style="endArrow=classic;html=1;rounded=0;exitX=0;exitY=0.5;exitDx=0;exitDy=0;exitPerimeter=0;entryX=0.967;entryY=0.5;entryDx=0;entryDy=0;entryPerimeter=0;" edge="1" parent="1" source="5n1SpemBF9XzUIWcsNsL-5" target="5n1SpemBF9XzUIWcsNsL-6">
          <mxGeometry width="50" height="50" relative="1" as="geometry">
            <mxPoint x="150" y="450" as="sourcePoint" />
            <mxPoint x="200" y="400" as="targetPoint" />
          </mxGeometry>
        </mxCell>
        <mxCell id="5n1SpemBF9XzUIWcsNsL-15" value="Fetch Data Stok Real Time" style="edgeLabel;html=1;align=center;verticalAlign=middle;resizable=0;points=[];" vertex="1" connectable="0" parent="5n1SpemBF9XzUIWcsNsL-10">
          <mxGeometry x="-0.0668" relative="1" as="geometry">
            <mxPoint as="offset" />
          </mxGeometry>
        </mxCell>
        <mxCell id="5n1SpemBF9XzUIWcsNsL-20" value="" style="endArrow=classic;html=1;rounded=0;exitX=0;exitY=0.5;exitDx=0;exitDy=0;dashed=1;" edge="1" parent="1" source="5n1SpemBF9XzUIWcsNsL-4" target="5n1SpemBF9XzUIWcsNsL-2">
          <mxGeometry width="50" height="50" relative="1" as="geometry">
            <mxPoint x="290" y="460" as="sourcePoint" />
            <mxPoint x="340" y="410" as="targetPoint" />
            <Array as="points">
              <mxPoint x="140" y="325" />
            </Array>
          </mxGeometry>
        </mxCell>
        <mxCell id="5n1SpemBF9XzUIWcsNsL-21" value="Respon Status" style="edgeLabel;html=1;align=center;verticalAlign=middle;resizable=0;points=[];" vertex="1" connectable="0" parent="5n1SpemBF9XzUIWcsNsL-20">
          <mxGeometry x="-0.0877" relative="1" as="geometry">
            <mxPoint as="offset" />
          </mxGeometry>
        </mxCell>
      </root>
    </mxGraphModel>
  </diagram>
</mxfile>
